<svg xmlns="http://www.w3.org/2000/svg" width="80" height="80" fill="none" viewBox="0 0 80 80">
  <g clip-path="url(#a)">
    <path fill="#000" d="M40 23.046A40.124 40.124 0 0 1 58.119 4.329a40.082 40.082 0 0 0-36.238 0A40.196 40.196 0 0 1 40 23.046m0 33.908a40.196 40.196 0 0 1-18.12 18.717 40.082 40.082 0 0 0 36.239 0 40.196 40.196 0 0 1-18.12-18.717M46.38 40a30.61 30.61 0 0 0 21.077 29.054 40.343 40.343 0 0 0 6.669-8.245 21.17 21.17 0 0 1 0-41.752 40.291 40.291 0 0 0-6.669-8.245A30.6 30.6 0 0 0 46.38 40"/>
    <path fill="#000" d="M66.622 40a11.76 11.76 0 0 0 11.616 11.76 40.112 40.112 0 0 0 0-23.52A11.75 11.75 0 0 0 66.622 40M5.875 19.119a21.17 21.17 0 0 1 0 41.752 40.338 40.338 0 0 0 6.668 8.245 30.6 30.6 0 0 0 0-58.17 40.289 40.289 0 0 0-6.668 8.245"/>
    <path fill="#000" d="M1.763 51.76a11.76 11.76 0 0 0 0-23.52 40.113 40.113 0 0 0 0 23.52"/>
  </g>
  <defs>
    <clipPath id="a">
      <path fill="#fff" d="M0 0h80v80H0z"/>
    </clipPath>
  </defs>
</svg>
