<svg xmlns="http://www.w3.org/2000/svg" width="220" height="116" fill="none" viewBox="0 0 220 116">
  <path fill="#F8F9F9" d="M0 0h220v116H0V0Z"/>
  <path fill="#031435" fill-opacity=".96" d="M50 0H0v116h50V0Z"/>
  <path fill="#fff" d="M170.7 35.47c-.2-.49-.5-.93-.87-1.3A3.96 3.96 0 0 0 167 33h-65c-1.06 0-2.08.42-2.83 1.17S98 35.94 98 37v59c0 1.06.42 2.08 1.17 2.83S100.94 100 102 100h65a3.96 3.96 0 0 0 2.83-1.17A3.96 3.96 0 0 0 171 96V37c0-.53-.1-1.05-.3-1.53Z"/>
  <path fill="#00B1FF" d="M112 82h46c.99 0 1.95.29 2.78.84a5.014 5.014 0 0 1 2.13 5.13 4.994 4.994 0 0 1-4.91 4.02h-46c-.99 0-1.95-.29-2.78-.84a5.014 5.014 0 0 1-2.13-5.13A4.994 4.994 0 0 1 112 82Z"/>
  <path fill="#0C1532" d="M0 0h220v18H0V0Z"/>
</svg>
