<svg
  xmlns="http://www.w3.org/2000/svg"
  width="24"
  height="24"
  viewBox="0 0 24 24"
  fill="currentColor"
>
  <path
    d="M19.03 4.99v2h1c.37 0 .7.1 1 .27V4.99c0-.55-.2-1.02-.59-1.41-.39-.39-.86-.59-1.41-.59H8.05l1.21 2h9.77Z"
  />
  <path d="M19.03 6.99v.5h2v-.23c-.3-.18-.63-.27-1-.27h-1Z" />
  <path
    d="M21.44 7.58c-.13-.13-.27-.23-.41-.31v.23h-2V7h-6c-.55 0-1.02.2-1.41.59-.39.39-.59.86-.59 1.41v6c0 .55.2 1.02.59 1.41.39.39.86.59 1.41.59h6v-.5h2v.23c.14-.09.28-.19.41-.31.39-.39.59-.86.59-1.41v-6c0-.55-.2-1.02-.59-1.41v-.02Zm-1.41 7.41h-7v-6h7v6Z"
  />
  <path
    d="M19.03 16.49v.5h1c.37 0 .7-.1 1-.27v-.23h-2Zm-3-3c.43 0 .79-.14 1.08-.42.28-.28.42-.64.42-1.08 0-.44-.14-.79-.42-1.08-.28-.28-.64-.42-1.08-.42-.44 0-.79.14-1.08.42-.28.28-.42.64-.42 1.08 0 .44.14.79.42 1.08.28.28.64.42 1.08.42Z"
  />
  <path
    d="M19.03 16.99v2h-14v-3.81c-.62.36-1.38.35-2-.01V19c0 .55.2 1.02.59 1.41.39.39.86.59 1.41.59h14c.55 0 1.02-.2 1.41-.59.39-.39.59-.86.59-1.41v-2.27c-.3.18-.63.27-1 .27h-1v-.01ZM4.04 0l-.09.3V9l.09.09L8.08 6.7 4.04 0Z"
  />
  <path
    d="M4.04 0 0 6.7l4.04 2.39V0Zm0 9.85-.05.06v3.1l.05.15 4.04-5.69-4.04 2.39v-.01Z"
    opacity="0.5"
  />
  <path
    d="m4.04 9.85-.05.06v3.1l.05.15 4.04-5.69-4.04 2.39v-.01Z"
    opacity="0.4"
  />
  <path d="M4.04 13.16V9.85L0 7.47l4.04 5.69Z" />
</svg>