<svg xmlns="http://www.w3.org/2000/svg" width="24" height="24" viewBox="0 0 24 24">
  <path d="M15.614 5.207a2 2 0 0 1 1.772 0l4.5 2.224A2 2 0 0 1 23 9.224v5.551a2 2 0 0 1-1.114 1.793l-4.5 2.225a2 2 0 0 1-1.772 0l-4.5-2.225A2 2 0 0 1 10 14.775V9.224a2 2 0 0 1 1.114-1.793l4.5-2.224ZM13.092 9.89a.75.75 0 0 0 .299 1.018l2.36 1.285v3.055a.75.75 0 0 0 1.5 0v-3.055l2.358-1.285a.75.75 0 0 0-.718-1.317l-2.39 1.304-2.392-1.304a.75.75 0 0 0-1.017.299ZM2.75 6.5a.75.75 0 1 0 0 1.5h5a.75.75 0 1 0 0-1.5h-5Zm-2 4.5a.75.75 0 1 0 0 1.5h5a.75.75 0 1 0 0-1.5h-5ZM2 16.25a.75.75 0 0 1 .75-.75h5a.75.75 0 1 1 0 1.5h-5a.75.75 0 0 1-.75-.75Z"/>
</svg>
