<svg xmlns="http://www.w3.org/2000/svg" width="24" height="24" viewBox="0 0 24 24">
  <path d="M5 22a1.93 1.93 0 0 1-1.413-.587A1.928 1.928 0 0 1 3 20v-4.55l2.75-3.125 1.425 1.425-2 2.25h13.65l-1.95-2.2 1.425-1.425L21 15.45V20a1.93 1.93 0 0 1-.587 1.413A1.928 1.928 0 0 1 19 22H5Zm5.6-7.6-3.475-3.525c-.383-.383-.575-.858-.575-1.425 0-.567.192-1.042.575-1.425l4.9-4.9c.383-.383.858-.575 1.425-.575.567 0 1.042.192 1.425.575L18.4 6.6c.383.383.58.854.588 1.412a1.88 1.88 0 0 1-.563 1.413l-5 5a1.879 1.879 0 0 1-1.412.563A1.967 1.967 0 0 1 10.6 14.4ZM17 8l-3.55-3.5L8.5 9.45l3.55 3.5L17 8Z"/>
</svg>
