<svg xmlns="http://www.w3.org/2000/svg" width="24" height="24" viewBox="0 0 24 24">
  <path d="m13 11.6 2.5 2.5a.948.948 0 0 1 .275.7.948.948 0 0 1-.275.7.948.948 0 0 1-.7.275.948.948 0 0 1-.7-.275l-2.8-2.8a1.03 1.03 0 0 1-.3-.725V8c0-.283.096-.521.288-.713A.967.967 0 0 1 12 7a.97.97 0 0 1 .713.287A.97.97 0 0 1 13 8v3.6ZM12 21c-2.017 0-3.825-.596-5.425-1.788-1.6-1.191-2.675-2.745-3.225-4.662-.083-.3-.054-.583.088-.85a.947.947 0 0 1 .662-.5.828.828 0 0 1 .763.187c.225.192.379.43.462.713a6.571 6.571 0 0 0 2.513 3.55A6.922 6.922 0 0 0 12 19c1.95 0 3.604-.68 4.962-2.038C18.321 15.604 19 13.95 19 12c0-1.95-.68-3.604-2.038-4.963C15.604 5.679 13.95 5 12 5a6.75 6.75 0 0 0-3.225.8A7.431 7.431 0 0 0 6.25 8H8a.97.97 0 0 1 .713.287A.97.97 0 0 1 9 9a.97.97 0 0 1-.287.712A.968.968 0 0 1 8 10H4a.965.965 0 0 1-.712-.288A.965.965 0 0 1 3 9V5c0-.283.096-.521.288-.713A.967.967 0 0 1 4 4a.97.97 0 0 1 .713.287A.97.97 0 0 1 5 5v1.35a8.73 8.73 0 0 1 3.113-2.475A8.928 8.928 0 0 1 12 3a8.71 8.71 0 0 1 3.513.712 9.168 9.168 0 0 1 2.85 1.925 9.167 9.167 0 0 1 1.925 2.85A8.715 8.715 0 0 1 21 12c0 1.25-.237 2.42-.712 3.512a9.151 9.151 0 0 1-1.925 2.85 9.158 9.158 0 0 1-2.85 1.926A8.715 8.715 0 0 1 12 21Z"/>
</svg>
