<svg xmlns="http://www.w3.org/2000/svg" width="24" height="24" viewBox="0 0 24 24">
  <g clip-path="url(#a)">
    <path d="m19.305 6.74-6.23-3.46a2.22 2.22 0 0 0-2.15 0l-6.23 3.46c-.66.37-1.07 1.05-1.07 1.79v6.93c0 .74.41 1.42 1.07 1.79l6.23 3.46c.66.37 1.48.37 2.15 0l6.23-3.46c.66-.37 1.07-1.05 1.07-1.79V8.54c0-.74-.41-1.42-1.07-1.79v-.01Zm-4.15.33c.76 0 1.38.62 1.38 1.38 0 .76-.62 1.38-1.38 1.38-.76 0-1.38-.62-1.38-1.38 0-.76.62-1.38 1.38-1.38Zm3.06 7.5c0 .55-.3 1.06-.8 1.33l-4.62 2.57c-.49.27-1.1.27-1.59 0l-4.62-2.57c-.49-.27-.8-.78-.8-1.33v-1.36l3.48-3.6c.19-.22.52-.36.88-.36s.69.14.89.36l3.72 3.58 1.29-.99c.09-.14.33-.23.55-.23.22 0 .43.09.55.23l1.05 1.01.02 1.36Z"/>
  </g>
  <defs>
    <clipPath id="a">
      <path d="M0 0h16.75v18H0z" transform="translate(3.625 3)"/>
    </clipPath>
  </defs>
</svg>
