<svg xmlns="http://www.w3.org/2000/svg" width="24" height="24" viewBox="0 0 24 24">
  <path d="M12 20.525c-.217 0-.429-.037-.637-.112a2.351 2.351 0 0 1-.588-.313l-6.75-5.25a.906.906 0 0 1-.387-.788.97.97 0 0 1 .412-.787.999.999 0 0 1 1.2 0L12 18.5l6.75-5.225a.999.999 0 0 1 1.2 0c.267.2.404.462.413.787a.909.909 0 0 1-.388.788l-6.75 5.25a2.357 2.357 0 0 1-.587.313 1.88 1.88 0 0 1-.638.112Zm0-5.05c-.217 0-.429-.037-.637-.112a2.351 2.351 0 0 1-.588-.313L4.025 9.8a.963.963 0 0 1-.3-.362 1.02 1.02 0 0 1 0-.876.963.963 0 0 1 .3-.362l6.75-5.25c.183-.133.38-.238.588-.313a1.872 1.872 0 0 1 1.275 0c.208.075.404.18.587.313l6.75 5.25c.133.1.233.22.3.362a1.02 1.02 0 0 1 0 .876.963.963 0 0 1-.3.362l-6.75 5.25a2.357 2.357 0 0 1-.587.313 1.88 1.88 0 0 1-.638.112Z"/>
</svg>
