<svg xmlns="http://www.w3.org/2000/svg" width="147" height="36" fill="none" viewBox="0 0 147 36">
  <path fill="#000" d="M139 0c4.4 0 8 3.6 8 8v20c0 4.4-3.6 8-8 8H8c-4.4 0-8-3.6-8-8V8c0-4.4 3.6-8 8-8h131Zm0 1H8C4.2 1 1.1 4 1 7.8V28c0 3.8 3 6.9 6.8 7H139c3.8 0 6.9-3 7-6.8V8c0-3.8-3-6.9-6.8-7h-.2ZM27.81 10.69l-6.92-2.7c-.26-.1-.56-.1-.82 0l-6.89 2.72c-.72.28-1.18.98-1.18 1.74l.04 5.42c0 1.16.22 2.3.63 3.39.4 1.07.99 2.07 1.74 2.98.75.91 1.66 1.7 2.68 2.35 1.05.67 2.2 1.27 3.45 1.5 1.26-.22 2.39-.84 3.44-1.51a11.44 11.44 0 0 0 2.67-2.37c.74-.91 1.32-1.92 1.72-2.99.4-1.09.61-2.24.61-3.39v-5.41c0-.77-.46-1.46-1.18-1.74h.01v.01Zm-5.26 2.36c-.9.46-1.62 1.21-2.05 2.12a4.531 4.531 0 0 0-2.05-2.12c1.29-.65 2.82-.65 4.11 0h-.01Zm-6.39 2.71a1.33 1.33 0 1 1 0 2.66c-.27-.87-.27-1.8 0-2.67v.01Zm.47 3.71a2.4 2.4 0 0 0 1.97-1.97c.22-1.31-.66-2.54-1.96-2.76.21-.34.46-.65.75-.93a3.474 3.474 0 0 1 0 6.6c-.29-.28-.55-.59-.76-.93v-.01Zm1.81 1.67c.9-.46 1.62-1.21 2.05-2.12.43.92 1.15 1.66 2.05 2.12-1.29.65-2.82.65-4.11 0h.01Zm5.17-.75a3.48 3.48 0 0 1-2.39-3.29c0-1.49.96-2.84 2.39-3.31.29.28.55.59.76.93a2.402 2.402 0 0 0 0 4.74c-.21.34-.46.66-.76.93Zm1.22-1.96c-.73 0-1.32-.6-1.32-1.33 0-.73.59-1.33 1.32-1.33.27.87.27 1.8 0 2.67v-.01Zm17.3 3.31c.87 0 1.41-.26 1.41-.87v-1.21l1.85-.67v2.22c0 1.35-1.31 2.12-3.36 2.12s-3.29-.77-3.29-2.12v-5.83c0-1.35 1.3-2.12 3.39-2.12s3.27.77 3.27 2.12v1.67l-1.85.67v-1.99c0-.6-.54-.87-1.41-.87-.98 0-1.4.27-1.4.87v5.14c0 .61.42.87 1.4.87h-.01Zm11.01 1.46h-6.41v-.77c-.17-2.12 1.07-3.33 2.83-4.45.77-.52 1.45-1.02 1.45-1.82v-.39c0-.57-.3-.9-.98-.9h-.42c-.67 0-1.02.31-1.02.83v.19l-1.87.67v-1.3c0-1.25 1.07-1.99 2.92-1.99h.42c1.86 0 2.92.77 2.92 2.27v.57c0 1.43-.68 2.17-2.56 3.33-1.1.7-1.59 1.36-1.75 2.18h4.46v1.58h.01Zm8.87-9.79h-2.07l-2.03 3.81-2.02-3.81H53.8l2.69 4.89-2.69 4.9h2.09l2.02-3.81 2.03 3.81h2.07l-2.66-4.9 2.66-4.89Zm11.35 0h1.04l-3.71 9.79h-1.12l-3.71-9.79h1.06l3.21 8.73 3.24-8.73h-.01Zm5.72 2.03c1.54 0 2.59.83 3.03 1.79v-1.68h.98v7.65h-.98v-1.7c-.45.98-1.51 1.81-3.04 1.81-2.09 0-3.64-1.56-3.64-3.95s1.56-3.92 3.66-3.92h-.01Zm.18.85c-1.61 0-2.85 1.12-2.85 3.07 0 1.95 1.23 3.1 2.85 3.1s2.84-1.18 2.84-3.08c0-1.9-1.28-3.08-2.84-3.08v-.01Zm6.08-3.47h.98v10.37h-.98V12.82Zm2.98.55c0-.42.32-.72.71-.72.39 0 .72.29.72.72s-.32.73-.72.73c-.4 0-.71-.31-.71-.73Zm.22 2.17h.98v7.65h-.98v-7.65Zm6.44-.11c1.37 0 2.52.76 3.01 1.77v-4.37h.98V23.2h-.98v-1.71c-.45 1.01-1.51 1.82-3.03 1.82-2.1 0-3.66-1.56-3.66-3.95s1.56-3.92 3.67-3.92l.01-.01Zm.17.84c-1.61 0-2.85 1.12-2.85 3.07 0 1.95 1.23 3.1 2.85 3.1s2.84-1.18 2.84-3.08c0-1.9-1.28-3.08-2.84-3.08v-.01Zm9.28-.86c1.54 0 2.59.83 3.03 1.79v-1.68h.98v7.65h-.98v-1.7c-.45.98-1.51 1.81-3.04 1.81-2.09 0-3.64-1.56-3.64-3.95s1.56-3.92 3.66-3.92h-.01Zm.18.85c-1.61 0-2.85 1.12-2.85 3.07 0 1.95 1.23 3.1 2.85 3.1s2.84-1.18 2.84-3.08c0-1.9-1.28-3.08-2.84-3.08v-.01Zm6.36.08h-1.06v-.83h1.06v-1.92h.99v1.92h2.1v.83h-2.1v4.75c0 .94.32 1.23 1.2 1.23h.9v.84h-1.05c-1.33 0-2.05-.55-2.05-2.07v-4.75h.01Zm8.05 6.93c-2.16 0-3.8-1.51-3.8-3.94 0-2.43 1.68-3.94 3.82-3.94 2.14 0 3.83 1.5 3.83 3.94s-1.7 3.94-3.85 3.94Zm0-.85c1.44 0 2.84-.98 2.84-3.08s-1.37-3.08-2.83-3.08-2.82.98-2.82 3.08 1.35 3.08 2.8 3.08h.01Zm6.64.74h-.98v-7.65h.98v1.36c.42-.94 1.3-1.5 2.62-1.5v1.02h-.27c-1.27 0-2.35.58-2.35 2.49v4.28Zm6.73.12c-1.74 0-2.96-.87-3.08-2.27h1.01c.08.84.81 1.44 2.06 1.44 1.09 0 1.71-.59 1.71-1.32 0-1.89-4.6-.78-4.6-3.66 0-1.14 1.08-2.07 2.69-2.07 1.61 0 2.72.87 2.8 2.34H134c-.06-.85-.69-1.5-1.85-1.5-1.02 0-1.67.55-1.67 1.22 0 2.07 4.53.97 4.57 3.67 0 1.23-1.08 2.14-2.66 2.14v.01Z"/>
</svg>
