<svg xmlns="http://www.w3.org/2000/svg" viewBox="0 0 102 36">
  <path fill-rule="evenodd" d="M8.03 0h85.31c4.44 0 8.03 3.6 8.03 8.03v19.94c0 4.44-3.6 8.03-8.03 8.03H8.03A8.03 8.03 0 0 1 0 27.97V8.03C0 3.59 3.59 0 8.03 0Zm85.31 35c3.88 0 7.03-3.15 7.03-7.03V8.03c0-3.88-3.15-7.03-7.03-7.03H8.03C4.15 1 1 4.15 1 8.03v19.94C1 31.85 4.15 35 8.03 35h85.31ZM18.98 18.44c0-.41.34-.75.75-.75s.75.34.75.75c.03 1.85-.15 3.7-.55 5.51l-.13.55-.13.5c-.04.16-.08.31-.12.45-.05.15-.14.29-.27.39-.13.1-.29.16-.45.16-.66 0-.81-.65-.72-.95.61-2.15.9-4.38.87-6.61Zm.72-3.3c-1.91-.01-3.25 1.46-3.22 3.15.02 1.49-.12 2.99-.42 4.45v.05a.708.708 0 0 0 .12.56c.06.08.13.15.21.2.08.05.18.09.27.11a.708.708 0 0 0 .56-.12c.08-.06.15-.13.2-.21.05-.08.09-.18.11-.27.32-1.57.47-3.17.45-4.78-.02-.81.62-1.64 1.7-1.64.98 0 1.79.79 1.8 1.73.02 1.5-.09 3.01-.33 4.49-.03.2.02.4.13.56.12.16.29.27.49.3.62.1.84-.47.86-.62.26-1.56.37-3.16.35-4.75-.03-1.74-1.5-3.18-3.28-3.21Zm-1.46-2.42c.45-.11.93-.16 1.41-.16 3.16.05 5.77 2.6 5.82 5.68.02 1.25-.04 2.5-.18 3.75-.03.29-.31.72-.83.66a.77.77 0 0 1-.5-.28.722.722 0 0 1-.16-.55c.13-1.17.19-2.37.17-3.55-.04-2.28-1.98-4.17-4.34-4.21-.36 0-.71.04-1.06.12-.09.02-.19.03-.29.01a.682.682 0 0 1-.27-.1.796.796 0 0 1-.21-.2.66.66 0 0 1-.12-.27c-.1-.4.15-.81.56-.9Zm-2 1.8h-.01c.31.26.36.73.11 1.05-.58.71-.88 1.61-.88 2.53.02 1.27-.08 2.54-.31 3.79l-.02.08c-.07.21-.31.61-.85.52a.904.904 0 0 1-.27-.11.796.796 0 0 1-.21-.2.708.708 0 0 1-.12-.56c.21-1.15.3-2.33.28-3.5-.02-1.27.41-2.51 1.21-3.5h.01c.26-.32.74-.36 1.06-.1Zm10.4 1.27h-.01c-.4.1-.66.5-.57.9.15.67.15 1.17.15 1.93 0 .41.34.74.75.74h.1c.37-.05.65-.37.65-.74v-.52c0-.53-.03-1.08-.18-1.75a.744.744 0 0 0-.89-.56Zm-.23-1.71h.01c.03-.2-.03-.4-.15-.55a8.368 8.368 0 0 0-2.91-2.57A8.2 8.2 0 0 0 19.6 10c-2.18-.02-4.2.79-5.69 2.29a7.464 7.464 0 0 0-2.2 5.43v.77c.04.37.35.66.72.66h.12a.74.74 0 0 0 .46-.24c.12-.13.19-.3.2-.48V17.4c.05-1.53.68-2.98 1.76-4.06 1.21-1.21 2.85-1.86 4.61-1.84 1.07.02 2.13.29 3.08.79.95.5 1.77 1.22 2.38 2.1 0 .012.007.02.015.03a.758.758 0 0 0 .515.31c.2.03.4-.03.55-.15.16-.12.26-.3.29-.5Zm14.54 3.4c.98.13 1.7.38 2.16.75.46.36.69.87.69 1.51 0 .73-.34 1.29-1.02 1.68-.68.39-1.64.59-2.86.59-1.33 0-2.34-.21-3.03-.63-.69-.42-1.09-1.08-1.21-1.96h1.51c.1.53.38.91.81 1.15.43.24 1.07.36 1.92.36.76 0 1.34-.1 1.75-.31.41-.21.61-.5.61-.88 0-.32-.14-.56-.42-.74-.28-.17-.71-.3-1.3-.38l-1.51-.2c-.78-.11-1.39-.26-1.85-.44-.46-.18-.78-.42-.99-.72-.21-.3-.31-.66-.31-1.1 0-.68.34-1.22 1.02-1.6.68-.38 1.64-.57 2.86-.57.76 0 1.39.07 1.9.22s.92.38 1.23.69c.31.31.54.71.68 1.2l-1.42.19c-.12-.3-.29-.54-.49-.72a1.87 1.87 0 0 0-.77-.39c-.3-.08-.68-.12-1.14-.12-.75 0-1.34.09-1.75.27-.41.18-.62.45-.62.79 0 .32.14.57.41.73.27.17.74.3 1.42.39l1.74.24h-.02Zm7.34 3.45c-.34 0-.59-.07-.75-.21-.16-.14-.24-.36-.24-.65v-2.84h2.1v-.97h-2.1v-1.5h-1.41v1.5H44.7v.97h1.19v2.79c0 .67.17 1.16.5 1.46.33.3.86.46 1.58.46.55 0 1.09-.08 1.61-.23l-.21-.94c-.36.11-.72.16-1.08.16Zm7.79-4.31.03-.02c.48.36.72.9.72 1.64v3.56h-1.31V21c-.36.33-.75.57-1.18.72-.43.15-.93.23-1.5.23-.8 0-1.41-.14-1.84-.44-.43-.3-.65-.72-.65-1.26 0-.6.28-1.05.84-1.35.57-.3 1.45-.46 2.66-.5l1.62-.04v-.18c0-.75-.55-1.13-1.65-1.13-.54 0-.95.06-1.24.18-.29.12-.47.3-.56.54l-1.26-.13c.14-.53.46-.93.96-1.18.5-.25 1.21-.38 2.14-.38 1 0 1.74.18 2.22.54Zm-1.1 3.87c.32-.22.48-.52.48-.89v-.38l-1.6.04c-.74.03-1.27.11-1.6.25-.33.14-.49.36-.49.65 0 .27.13.47.38.62.25.15.6.22 1.05.22.34 0 .66-.04.97-.13.31-.09.58-.22.81-.38Zm10.14-4.23h-1.86l-3.23 2.16v-4.24h-1.41v7.64h1.41v-2.17l1.37-.91 2.39 3.08h1.61l-2.99-3.74 2.71-1.82Zm2.21.2c.52-.25 1.13-.38 1.83-.38 1.06 0 1.89.24 2.47.74.59.49.88 1.19.88 2.08v.45h-5.42c.01.52.21.93.59 1.23.38.31.88.46 1.5.46.49 0 .89-.07 1.2-.22.31-.15.52-.36.64-.65h1.4c-.18.61-.53 1.07-1.07 1.37-.53.3-1.26.45-2.18.45-1.08 0-1.92-.26-2.54-.78-.61-.51-.92-1.22-.92-2.12 0-.59.14-1.1.42-1.56.28-.46.68-.81 1.2-1.07Zm.43.95c-.36.27-.58.63-.64 1.09h4.02c-.02-.47-.2-.84-.55-1.1-.35-.26-.83-.39-1.45-.39-.55 0-1.02.13-1.38.4Zm11.22-3.23h-1.5v7.64h1.5v-7.64Zm2.19 0h3.65c1.57 0 2.76.32 3.59.98.83.66 1.24 1.61 1.24 2.84 0 1.23-.44 2.17-1.32 2.83-.88.66-2.14.99-3.76.99h-3.4v-7.64Zm3.45 6.5c1.16 0 2.03-.23 2.61-.67.59-.46.88-1.12.88-2 0-1.79-1.09-2.68-3.27-2.68h-2.17v5.35h1.95Z" clip-rule="evenodd"/>
</svg>
