<svg xmlns="http://www.w3.org/2000/svg" width="94" height="36" viewBox="0 0 94 36">
  <path d="M87.04 0H6.96C3.12 0 0 3.12 0 6.96v22.08C0 32.88 3.12 36 6.96 36h80.08c3.84 0 6.96-3.12 6.96-6.96V6.96C94 3.12 90.88 0 87.04 0ZM93 29.04c0 3.29-2.67 5.96-5.96 5.96H6.96C3.67 35 1 32.33 1 29.04V6.96C1 3.67 3.67 1 6.96 1h80.08C90.33 1 93 3.67 93 6.96v22.08Z"/>
  <path d="m27.6 10.68-6.92-2.7c-.26-.1-.56-.1-.82 0l-6.89 2.72c-.72.28-1.18.98-1.18 1.74l.04 5.42c0 1.16.22 2.3.63 3.39.4 1.07.99 2.07 1.74 2.98.75.91 1.66 1.7 2.68 2.35 1.05.67 2.2 1.27 3.45 1.5 1.26-.22 2.39-.84 3.44-1.51 1.01-.65 1.91-1.45 2.67-2.37.74-.91 1.32-1.92 1.72-2.99.4-1.09.61-2.24.61-3.39v-5.41c0-.77-.46-1.45-1.17-1.73Zm-7.32 10.94c-2.5 0-4.53-2.03-4.53-4.53 0-2.5 2.03-4.53 4.53-4.53 2.5 0 4.53 2.03 4.53 4.53 0 2.5-2.03 4.53-4.53 4.53Z"/>
  <path d="m20.926 17.416-.319.318 2.2 2.199.318-.318-2.2-2.2Zm-3.181-3.163-.318.318 2.2 2.199.318-.318-2.2-2.2Zm1.879 3.179-2.197 2.2.318.319 2.198-2.2-.319-.319Zm3.186-3.182-2.197 2.201.318.318 2.197-2.2-.318-.319Zm20.99.15 4.64-3.8h-2.16l-3.5 2.92-3.48-2.92h-2.25l4.63 3.84-4.95 4.06h2.09l3.84-3.16 3.82 3.16h2.29l-4.97-4.1Zm11.92-3.8H49.4v1.34h5.86c1.78 0 2.61.44 2.61 1.4 0 1.18-1.63 1.36-2.6 1.36h-5.85v3.79h1.59v-2.48h4.71c2.34 0 3.74-1 3.74-2.67s-1.43-2.75-3.74-2.75v.01Zm13.53 6.57h-7.1V10.6h-1.58v7.9h8.68v-1.33Zm6.72-6.67c-.38 0-.73.19-.97.53l-5.35 7.47h1.89l4.4-6.19 3.39 4.86h-5.28v1.33h8.15l-5.27-7.47c-.23-.34-.58-.53-.97-.53h.01Zm-36.6 15.84-2.09-3.84h-.56l2.37 4.27h.52l2.37-4.27h-.53l-2.08 3.84Zm4.67-2.75c-.53 0-.94.06-1.23.19-.29.13-.48.32-.56.59l.42.05c.07-.18.22-.31.45-.4.22-.09.53-.13.92-.13.43 0 .74.07.94.21.2.14.31.35.31.64v.15l-1.19.02c-.7.02-1.22.1-1.55.26-.33.16-.5.4-.5.72 0 .3.13.54.39.7.26.16.63.25 1.12.25.77 0 1.35-.22 1.74-.65v.57h.43v-2.03c0-.39-.14-.67-.41-.86-.28-.19-.7-.28-1.26-.28h-.02Zm1.23 1.97c0 .12-.04.24-.12.35-.08.12-.19.22-.33.31-.15.1-.33.17-.53.22-.21.05-.42.08-.65.08-.36 0-.64-.06-.84-.17-.2-.12-.3-.28-.3-.48 0-.23.12-.39.37-.5.25-.11.66-.17 1.23-.18l1.18-.03v.4h-.01Zm2.09-3.06h-.45v4.27h.45V22.5Zm1.69 0h-.48v.59h.48v-.59Zm-.02 1.19h-.45v3.08h.45v-3.08Zm4.63.57c-.35-.45-.9-.67-1.66-.67-.4 0-.74.07-1.04.21-.3.14-.52.33-.68.58-.16.25-.24.53-.24.86 0 .33.08.62.24.87.16.25.38.43.67.56.29.13.62.19 1 .19s.72-.06 1.03-.19c.31-.13.54-.3.7-.52v.62h.45V22.5h-.45v1.76h-.02Zm0 1.1c0 .16-.04.32-.12.47-.08.15-.19.27-.33.38-.15.11-.32.19-.53.25-.2.06-.41.09-.63.09-.48 0-.86-.12-1.13-.35-.28-.23-.41-.55-.41-.96 0-.43.14-.75.42-.98.28-.23.67-.34 1.18-.34.21 0 .41.03.59.07.18.04.35.12.48.22.16.11.28.24.36.39.08.16.12.33.12.51v.26-.01Zm3.43-1.77c-.53 0-.94.06-1.23.19-.29.13-.48.32-.56.59l.42.05c.07-.18.22-.31.45-.4.22-.09.53-.13.92-.13.43 0 .74.07.94.21.2.14.31.35.31.64v.15l-1.19.02c-.7.02-1.22.1-1.55.26-.33.16-.5.4-.5.72 0 .3.13.54.39.7.26.16.63.25 1.12.25.77 0 1.35-.22 1.74-.65v.57h.43v-2.03c0-.39-.14-.67-.41-.86-.28-.19-.7-.28-1.26-.28h-.02Zm1.23 1.97c0 .12-.04.24-.12.35-.08.12-.19.22-.33.31-.15.1-.33.17-.53.22-.21.05-.42.08-.65.08-.36 0-.64-.06-.84-.17-.2-.12-.3-.28-.3-.48 0-.23.12-.39.37-.5.25-.11.66-.17 1.23-.18l1.18-.03v.4h-.01Zm3.05.96c-.49 0-.73-.21-.73-.62v-1.91h1.41v-.3h-1.41v-.85h-.45v.85h-.73v.3h.73v1.9c0 .32.09.56.27.72.18.16.46.23.85.23.3 0 .58-.04.84-.12l-.08-.31c-.24.07-.48.11-.7.11Zm4.79-2.5c-.37-.29-.88-.43-1.53-.43-.44 0-.81.07-1.13.21-.32.14-.56.33-.73.58-.17.25-.25.53-.25.86 0 .51.19.9.56 1.19.37.29.88.43 1.53.43s1.16-.15 1.54-.45c.38-.3.57-.7.57-1.21s-.19-.9-.56-1.19v.01Zm-.35 2.17c-.29.23-.69.35-1.2.35s-.9-.12-1.19-.35c-.28-.23-.43-.55-.43-.97 0-.42.14-.74.43-.97.28-.23.68-.35 1.2-.35.52 0 .91.12 1.2.35.28.23.43.55.43.96 0 .41-.14.74-.43.98h-.01Zm3.01-2.38c-.25.11-.47.28-.65.49v-.62h-.44v3.08h.45v-1.79c0-.24.11-.45.34-.63.15-.12.31-.22.49-.28.18-.06.38-.09.6-.09.13 0 .25.01.36.03l.05-.34c-.12-.02-.24-.03-.37-.03-.3 0-.57.06-.83.17v.01Zm4.66 1.43c-.22-.07-.53-.13-.93-.18l-.46-.05c-.42-.05-.71-.11-.87-.19-.16-.08-.24-.2-.24-.37 0-.17.11-.31.33-.4.22-.1.52-.15.92-.15s.7.04.91.13c.21.09.36.23.44.42l.42-.05c-.11-.28-.3-.49-.57-.61-.28-.13-.67-.19-1.19-.19-.52 0-.93.08-1.22.23-.29.15-.44.36-.44.63s.11.45.33.58c.22.13.6.23 1.14.29l.44.05c.23.03.42.06.57.09.15.03.27.07.37.11.1.04.17.09.21.15.04.06.06.14.06.23 0 .2-.11.35-.34.45-.23.1-.56.15-1 .15-.44 0-.75-.05-.98-.16a.829.829 0 0 1-.47-.5h-.44c.08.32.27.56.58.71.31.16.75.24 1.31.24 1.19 0 1.78-.31 1.78-.92 0-.17-.05-.31-.14-.42-.09-.11-.25-.2-.47-.28l-.05.01Z"/>
</svg>
