<svg xmlns="http://www.w3.org/2000/svg" viewBox="0 0 20 20">
  <path d="M10.96 10c0 2.3-1.893 4.167-4.23 4.167a4.269 4.269 0 0 1-1.617-.316 4.229 4.229 0 0 1-1.372-.902 4.17 4.17 0 0 1-.917-1.353A4.128 4.128 0 0 1 2.5 10c0-2.302 1.894-4.167 4.23-4.167a4.27 4.27 0 0 1 1.617.316 4.2 4.2 0 0 1 2.29 2.255c.213.506.323 1.048.324 1.596Zm4.642 0c0 2.167-.947 3.922-2.115 3.922-1.169 0-2.115-1.756-2.115-3.922 0-2.167.946-3.922 2.115-3.922 1.168 0 2.115 1.756 2.115 3.922Zm1.898 0c0 1.94-.333 3.514-.744 3.514s-.744-1.574-.744-3.514c0-1.94.333-3.514.745-3.514.41 0 .743 1.573.743 3.514Z"/>
</svg>
